<svg width="32" height="32" viewBox="0 0 32 32" fill="none" xmlns="http://www.w3.org/2000/svg">
  <!-- Background -->
  <rect width="32" height="32" rx="6" fill="white"/>
  
  <!-- Outer dark circle background -->
  <circle cx="16" cy="16" r="15" fill="#1A202C"/>
  
  <!-- Single continuous orange line: starts bottom-left, curves up-right, angular down turn, curves up-right to end -->
  <path d="M 4 24 
           Q 5 18, 6 16
           Q 7 14, 8 12
           Q 9 10, 10 8
           Q 11 6, 12 8
           Q 13 10, 14 12
           Q 15 14, 15 10" 
        stroke="#F97316" 
        stroke-width="2.5" 
        fill="none" 
        stroke-linecap="round" 
        stroke-linejoin="round"/>
  
  <!-- Thinner continuation -->
  <path d="M 4 24 
           Q 5 18, 6 16
           Q 7 14, 8 12
           Q 9 10, 10 8
           Q 11 6, 12 8
           Q 13 10, 14 12
           Q 15 14, 15 10" 
        stroke="#F97316" 
        stroke-width="1.2" 
        fill="none" 
        stroke-linecap="round" 
        stroke-linejoin="round"
        opacity="0.8"/>
</svg>
